<?xml version="1.0" standalone="no"?><!DOCTYPE svg PUBLIC "-//W3C//DTD SVG 1.1//EN" "http://www.w3.org/Graphics/SVG/1.1/DTD/svg11.dtd"><svg t="1556020010575" class="icon" style="" viewBox="0 0 1024 1024" version="1.1" xmlns="http://www.w3.org/2000/svg" p-id="1302" xmlns:xlink="http://www.w3.org/1999/xlink" width="48" height="48"><defs><style type="text/css"></style></defs><path d="M1024 824c0 110-90 200-200 200H200C90 1024 0 934 0 824V200C0 90 90 0 200 0h624c110 0 200 90 200 200v624z" fill="#44A7DF" p-id="1303"></path><path d="M433.978 594.537c0-208.95 211.553-236.443 234.66-239.425L529.881 220.244c-12.855-10.897-31.706-10.897-44.556 0L204.244 458.259a34.369 34.369 0 0 0-4.059 48.569c12.315 14.528 34.063 16.341 48.615 4.06l4.513-3.854v274.128a21.52 21.52 0 0 0 6.306 15.263 21.56 21.56 0 0 0 15.269 6.313h280.794c-14.951-8.451-121.704-49.819-121.704-208.201z m-80.415-295.659c0-14.322-11.6-25.94-25.922-25.962h-49.275c-14.325 0.022-25.922 11.641-25.922 25.962v91.513l101.119-84.388v-7.125z m356.068 218.841a32.532 32.532 0 0 0-23.193 9.612 32.7 32.7 0 0 0-9.65 23.15 32.669 32.669 0 0 0 9.575 23.181c12.925 12.481 33.394 12.513 46.375 0.082 6.132-6.213 9.481-14.494 9.481-23.226 0-8.737-3.35-16.938-9.481-23.188a32.354 32.354 0 0 0-23.107-9.611z m0 0" fill="#FFFFFF" p-id="1304"></path><path d="M664.45 403.641c-106.382 0.091-192.631 86.247-192.832 192.628 0.25 106.351 86.481 192.463 192.832 192.55 106.281-0.137 192.399-86.269 192.513-192.55-0.088-106.297-86.207-192.469-192.513-192.628z m92.056 193.209c-21.1 21.132-53.855 25.231-79.506 9.938l-41.943 41.95 19.125 19.169c6.387 6.432 6.387 16.8 0 23.231a16.67 16.67 0 0 1-11.594 4.769 16.722 16.722 0 0 1-11.544-4.769l-19.101-19.088-30.762 30.644a16.37 16.37 0 0 1-11.594 4.819c-4.356 0-8.52-1.737-11.594-4.819-6.406-6.425-6.406-16.813 0-23.23l95.943-95.863a64.17 64.17 0 0 1-9.275-33.081c-0.043-17.475 6.832-33.956 19.213-46.378a65.209 65.209 0 0 1 46.338-19.131c17.469 0 33.912 6.832 46.293 19.172 12.382 12.381 19.169 28.825 19.169 46.337-0.036 17.548-6.83 33.949-19.168 46.33z m0 0" fill="#FFFFFF" p-id="1305"></path></svg>