<?xml version="1.0" encoding="utf-8"?>
<!-- Generator: Adobe Illustrator 21.0.0, SVG Export Plug-In . SVG Version: 6.00 Build 0)  -->
<svg version="1.1" id="图层_1" xmlns="http://www.w3.org/2000/svg" xmlns:xlink="http://www.w3.org/1999/xlink" x="0px" y="0px"
	 viewBox="0 0 1024 1024" style="enable-background:new 0 0 1024 1024;" xml:space="preserve">
<g>
	<path fill="#7F1086" d="M558.1,403.6L352.7,609c-2.2,2.2-5.9,2.2-8.1,0l-6-6c-2.2-2.2-2.2-5.9,0-8.1l191.3-191.3h-56.1
		c-0.2,0.4-0.5,0.8-0.8,1.1l-160.9,161c-2.2,2.2-5.9,2.2-8.1,0l-6-6c-2.2-2.2-2.2-5.9,0-8.1l148-148h-52.5L272.1,525.1
		c-2.2,2.2-5.9,2.2-8.1,0l-6-6c-2.2-2.2-2.2-5.9,0-8.1l107.4-107.4h-47.1l-83.6,83.6c-2.2,2.2-5.9,2.2-8.1,0l-6-6
		c-2.2-2.2-2.2-5.9,0-8.1l69.5-69.5H98.7v500h530v-500L558.1,403.6L558.1,403.6z"/>
	<path fill="#FEE101" d="M220.4,481.3l6,6c2.2,2.2,5.9,2.2,8.1,0l83.6-83.6h47.1L257.8,511.1c-2.2,2.2-2.2,5.9,0,8.1l6,6
		c2.2,2.2,5.9,2.2,8.1,0l121.4-121.5h52.5l-148,148c-2.2,2.2-2.2,5.9,0,8.1l6,6c2.2,2.2,5.9,2.2,8.1,0l160.9-161
		c0.3-0.3,0.6-0.7,0.8-1.1h56.1L338.4,595c-2.2,2.2-2.2,5.9,0,8.1l6,6c2.2,2.2,5.9,2.2,8.1,0l205.4-205.4h70.6v369.4l296.7-296.7
		L571.6,122.9L219.1,475.5C218.5,477.4,218.9,479.7,220.4,481.3z"/>
</g>
</svg>
